<svg xmlns="http://www.w3.org/2000/svg" width="47" height="44" viewBox="0 0 47 44"><path fill="#262626" d="M45.06 6.01a2.67 2.67 0 0 0-2.09-1.02H15.86c-.86 0-1.66.41-2.16 1.09-.5.69-.64 1.58-.38 2.39l4.99 15.61c.22.68.86 1.15 1.58 1.15h20.3c.77 0 1.43-.53 1.61-1.27l3.76-15.68c.2-.79 0-1.63-.5-2.27zm-.64 22.17H18.24c-.93 0-1.75-.59-2.03-1.47L9 4.35A5.08 5.08 0 0 0 4.15.82H2.58a2.43 2.43 0 0 0 0 4.86h1.57c.1 0 .2.07.23.16l7.2 22.36a6.97 6.97 0 0 0 6.66 4.84h26.18a2.43 2.43 0 0 0 0-4.86zm-24.46 7.66a3.87 3.87 0 1 0 0 7.74 3.87 3.87 0 0 0 0-7.74zm20.33 0a3.87 3.87 0 1 0 0 7.74 3.87 3.87 0 0 0 0-7.74z"/></svg>