<svg xmlns="http://www.w3.org/2000/svg" width="55" height="55" viewBox="0 0 55 55"><path fill="#262626" d="M54 15.9a1.2 1.2 0 0 0 .48-2.15c-1.45-1.06-3.32-2.1-4.72-1.79l2.9-7.22a1.2 1.2 0 0 0-1.55-1.56l-7.23 2.9c.31-1.4-.73-3.26-1.79-4.71a1.2 1.2 0 0 0-2.14.48 39.19 39.19 0 0 1-2.64 7.89c.78.49 1.5 1.08 2.17 1.75l4.88 4.87c.67.67 1.25 1.39 1.76 2.17 1.57-.7 4.9-2.08 7.88-2.63zm-11.27 2.09l-4.87-4.88a10.66 10.66 0 0 0-7.57-3.14c-3.7 0-7.37 1.9-9.38 5.48l-5.35 9.51 5.8 9.57-8.34-5.06L1.25 50.41C0 52.61 1.75 55 3.9 55c.49 0 1-.13 1.51-.41l9.16-5.14-3.08-5.7 6.75 3.64 18.8-10.57-5.16-9.01 10.28 5.89a10.75 10.75 0 0 0 .56-15.71z"/></svg>