<svg xmlns="http://www.w3.org/2000/svg" width="55" height="49" viewBox="0 0 55 49"><path fill="#262626" d="M30.28 16.73a12.25 12.25 0 0 0 .36-8.24 12.26 12.26 0 0 0-2.04-4 10.59 10.59 0 0 0-3.3-2.87A7.05 7.05 0 0 0 21.94.7c-.43-.01-.8.11-1.03.17l-.35.11.08.35c.05.21.05.58.09.92.03.75-.05 1.66-.14 2.65-.16 1.94-.12 4.22.59 6.46.35 1.12.8 2.23 1.41 3.26.6 1.03 1.3 1.99 2.02 2.81.66.72 2.14 2.41 2.67 2.83.14-.95.26-1.93.28-2.92.06-.7.01-1.39 0-2.08-.02-.68-.14-1.35-.2-2-.11-.64-.27-1.25-.4-1.84l-.57-1.59-.69-1.26c-.17-.39-.47-.64-.64-.89l-.6-.76.65.71c.2.24.51.48.72.86l.79 1.23.7 1.58c.18.59.39 1.21.56 1.86.1.66.28 1.34.35 2.04.06.71.16 1.42.16 2.14.03.81.01 1.62-.02 2.41.06-.07.14-.12.2-.2.6-.68 1.22-1.66 1.71-2.82zm-6.38 5.95l.3.52a15.12 15.12 0 0 0-11.48 10.01l.35.04c.45 0 1.12.11 2.28.32.03-.35.15-.68.36-.96a4.33 4.33 0 0 1 3.6-1.73c2.25.01 4.64.07 7.05.8a5.7 5.7 0 0 0 3.89-.22c3.8-1.52 7.13-1.38 9.83.38l1.03.69a15.14 15.14 0 0 0-11.62-9.41l.44-.77c.15-.24.45-.88.4-1.03v-.28a27.9 27.9 0 0 0-1.47 2.02c-.26-.03-.53-.04-.8-.06.14-1.02.26-2.11.31-3.25-.09.09-.16.18-.26.26-.17.12-.43 1.02-.5 1.39-.09.53-.19 1.04-.3 1.54l-.27-.02c-.78 0-1.54.06-2.28.17-.38-.56-.79-1.14-1.25-1.72 0 .09 0 .18-.02.27-.04.16.26.8.4 1.04zm8.76-4.16c.4-.37.83-.67 1.22-.99.42-.29.85-.54 1.24-.79l1.2-.54 1.06-.31c.3-.12.6-.1.83-.14l.73-.08-.72.13c-.23.06-.52.06-.81.2l-1.02.37-1.12.62c-.37.27-.76.54-1.14.85-.36.34-.76.66-1.11 1.05-.35.38-.72.75-1.04 1.18-.48.57-.9 1.19-1.3 1.8.52.02 2.2-.2 2.93-.29a12.24 12.24 0 0 0 4.99-1.74c1.52-.92 2.67-2.2 3.55-3.39.44-.61.85-1.16 1.24-1.57.19-.18.38-.39.51-.49l.22-.15-.14-.25c-.1-.14-.26-.4-.5-.6a5.29 5.29 0 0 0-2.38-1.15 8 8 0 0 0-3.3-.01c-1.14.21-2.21.66-3.17 1.26-.95.6-1.8 1.35-2.45 2.21a9.09 9.09 0 0 0-1.45 2.66c-.3.91-.43 1.78-.42 2.47l.01.21c.38-.47.77-.93 1.2-1.39.34-.4.76-.76 1.14-1.13zm-22.23-3.31c.4.41.8.96 1.24 1.57a12.78 12.78 0 0 0 3.56 3.39 12.2 12.2 0 0 0 4.98 1.74c.73.09 2.41.31 2.93.29-.4-.62-.82-1.23-1.3-1.81-.31-.42-.69-.79-1.03-1.18-.35-.38-.75-.7-1.11-1.04-.38-.31-.78-.58-1.15-.85l-1.11-.62-1.02-.38c-.3-.13-.59-.13-.81-.19l-.73-.13.73.08c.24.04.53.02.84.13l1.06.31 1.2.55c.39.25.81.5 1.23.79.4.32.83.62 1.22.99s.8.72 1.16 1.13c.42.45.81.92 1.19 1.39l.01-.22c0-.68-.13-1.55-.42-2.46-.31-.9-.8-1.83-1.46-2.66a9.13 9.13 0 0 0-2.44-2.21 9.17 9.17 0 0 0-3.16-1.26 8 8 0 0 0-3.31 0 5.4 5.4 0 0 0-2.38 1.16c-.25.2-.4.46-.5.6l-.14.24.21.16c.14.1.33.31.52.49zM47.37 40.3c-2.32-3.15-5.36-5.5-8.57-7.59-2.6-1.69-5.56-1.33-8.31-.22a7.4 7.4 0 0 1-4.99.26 22.75 22.75 0 0 0-6.55-.73c-.95 0-1.74.33-2.3 1.07-.32.42 2.26 2.15 4.48 2.15-.41.82-7.57-.92-8.52-.85l-5.42-.69c-1.92-.16-1.92-.88-3.81.18-.06.04-.16.04-.24.04a2.4 2.4 0 0 0-2.23.97c-.34.4-.3.89-.13 1.36.2.49.67.37 1.07.52 2.42.96 3.2 1.43 6.48 2.24 2.34.58 4.61 1.28 6.95 1.81.96.22 1.94.38 2.8.87a10.66 10.66 0 0 0 5.93 1.26c2.4-.11 4.8-.01 7.2-.03 4.2-.02 7.4 1.67 9.57 5.38l13.55-.03c-2.95-3.46-4.26-4.3-6.96-7.97z"/></svg>