<svg xmlns="http://www.w3.org/2000/svg" width="54" height="54" viewBox="0 0 54 54"><path fill="#262626" d="M38.81 37.18c-.13.33-.27.66-.35.8-.18.29-.69.92-.95 1.16l-.13.11-1.52 1.17c-.24.18-1.34 1.13-1.47 1.23-.13.11-.34.45-.34.45l-.18.26.08.21s-.16.19-.21.37c0 .03-.02.05-.04.08-1.44.6-2.93.99-4.43 1.17-.28.6-.58 1.2-.88 1.78A18.97 18.97 0 0 0 43 37.51c-.63-.02-1.28-.07-1.92-.11-.75-.06-1.5-.13-2.27-.22zm0 0zm-16.26 1.58a1.2 1.2 0 0 1-.07-.04l-.21-.09-.03-.01c-.67-.31-.11-.26-.81-.36l-.1-.01c-.58-.09-.27-.12-.74-.12-.5 0-.69 0-.87-.1-.18-.11-.47-.35-.47-.35s-.23-.18-.79-.31c-.54-.13-.83 0-.96-.26-.13-.27-.45-.59-.6-.82-.16-.24-.5-.82-.5-.82s-.08-.52-.14-.7a2.52 2.52 0 0 0-.29-.58c-.13-.21-.15-.34-.15-.34l.13-.08s-.42-.08-.42-.29v-.58h.15l-.05-.26-.08-.13.3-.18.3-.56v-.11a76.23 76.23 0 0 1-8.03-3.52 19.11 19.11 0 0 0 9.27 15.18c-.2 5.7.68 9.56 2.67 10.09 3.15.85 8.06-6.93 11.87-18.2 11.64 2.33 20.82 1.95 21.66-1.21.53-1.99-2.36-4.68-7.37-7.36v.26A19.04 19.04 0 0 0 37.75 11l-.12 1.99a17.4 17.4 0 0 1 6.14 19c0-.07-.01-.08-.04-.19-.03-.15-.09-.15 0-.42s.06-.21-.09-.42.1-.51.1-.51v-.27l-.37.21-.36.06-.33-.21s-.11.12-.27.24c-.15.12.06.06-.33.26-.39.22-.2.19-.62.37s-.57.33-.57.18c0-.16.18-.43-.03-.43s-.27.21-.27.21l-.3.33-.3-.11s-.06-.12-.2-.12c-.16 0-.28-.06-.28-.06s.06-.24-.12-.39c-.18-.15-.24-.57-.41-.36l-.4.44-.03.16.02.02c.07.18.14.27.14.27s.18.25.3.27c.1.02.24.32.24.32l.02.29s.23-.09.34-.04l-.07.31s.28-.02.48-.13c.2-.11.38-.38.38-.38l.23-.44.24.05.07.38.59.14s-.1.24-.12.4c-.01.13-.09.36-.18.67l1.5.07.82.02c.46 0 1.02-.01 1.63-.04.63-1.85.99-3.8 1.04-5.77v.02c2.95 1.77 4.55 3.44 4.22 4.7-.65 2.39-8.07 2.56-17.7.68.4-1.32.8-2.67 1.16-4.06 3.9-14.64 4.06-27.32.34-28.32-1.98-.53-4.67 2.36-7.34 7.4h.12a18.98 18.98 0 0 0-16.43 9.67l.18-.34c-5.69-.2-9.53.69-10.06 2.68-1 3.73 10.03 9.94 24.64 13.86 1.38.38 2.74.71 4.08 1.01-3.19 9.31-7.05 15.67-9.43 15.03-1.26-.33-1.9-2.57-1.96-6.01v-.01c1.72.94 3.58 1.61 5.5 1.99l.84-1.4.08-.13a.5.5 0 0 1 .01-.03l-.08-.02-.1-.07a.87.87 0 0 1-.2-.21c-.09-.12-.15-.24-.15-.24l.15-.21c.08-.09.17-.18.25-.18l.15-.03c.15-.03.32-.1.32-.1l-.13-.34.03-.21-.22-.62-.02-.07-.38-.34-.17-.16-.58-.55.16-.5s.16-.27.19-.09c.02.19 0 .43 0 .43l.18-.18.2-.51-.2-.28-.27-.32s-.05.16-.28.08a.82.82 0 0 1-.13-.06c-.11-.07-.14-.15-.24-.15-.13 0-.31.16-.34.03-.02-.1 0-.3-.04-.43l-.02-.01h.02v-.01a1.64 1.64 0 0 1-.02 0zm-.07-.04l.07.03c-.02-.03-.05-.06-.08-.06-.05 0-.03.01.01.03zm14.28-1.37c.19.02.44 0 .62 0h.06c.18 0 .34-.08.63-.24l.02-.01-.7-.09-.7-.1c.16.12.28.23.23.25-.14.05-.37.16-.16.19zm-14.2 1.41zm5.91-14.15l.03.03c.01-.03-.03-.03-.03-.03zm6.32 4.17h-.04l-.03.15-.52 1.86.28.01s.16-.07.2-.27c.05-.2.16-.43.16-.43l.12.02c.04-.08.1-.2.1-.34 0-.28-.13-.34-.13-.5 0-.15.06-.53.06-.53zm-.83 2.84l-.09.28.13-.02.08.21.05-.12s0-.09-.04-.27c0-.03-.07-.06-.13-.08zm1.64-6.02l-.04-.02-.28 1.13c.07.04.02.05.29.06.37.02.11.02.4.02.27 0 .32.04.37-.08.05-.12.06.06.06-.25s-.14-.44-.24-.53a2.4 2.4 0 0 0-.56-.33zM22.57 38.78c.04.01.03 0 0-.01zm8.36-25.4l-.13.12-.16.27-.04.03-.11.07s-.15-.13-.2-.21c-.05-.08-.05-.2-.05-.27l-.03-.23-.08-.17c-.01 0 .33-.06.35.03.01.09.07.25.12.19l.01-.03.1-.17s.13-.12.22-.06c.1.07.2.08.1.12-.1.04-.29.15-.29.15zm-2.1-1.25c.12 0 .03.17.03.17s-.04.04-.16.04c-.13 0-.43.04-.43.04l-.5.23.04.21-.23.15-.17-.25-.15.34-.1.15s-.21.06-.31.06c-.11 0-.03.1-.03.25 0 .08-.09.08-.18.05-.08-.01-.15-.05-.15-.05l-.02-.25-.38-.06-.02.36.06.23-.4.13-.06-.28-.26.04-.23.09s.2.1.32.1c.1 0 .08.34.08.34l-.36-.09-.07.04a.51.51 0 0 1-.33-.01c-.2-.09-.12-.11-.12-.11l-.2-.15-.03-.01-.23-.11-.05.19h-.37c-.15 0-.26.14-.26.14s-.19 0-.31-.04a.16.16 0 0 1-.08-.04c-.05-.05-.05-.12-.05-.12l-.27.04-.34-.15-.29.23-.05.04s-.12.02-.25.02c-.12 0-.3.15-.4.19a2.5 2.5 0 0 1-.2.08l-.32.11c-.13.04-.07.11-.17.19-.1.09-.21 0-.38-.17l-.04-.16.34-.04-.15-.22.09-.19s.12-.17.23-.25c.1-.08.31-.16.31-.16l.1-.06c.05-.03.1-.08.11-.13.02-.11.32-.26.32-.26l.36-.04.11-.26.02-.04.54-.23.39.08.03.01s.24-.07.34-.17c.1-.11.23-.17.23-.17l.3-.06.1-.02c.12-.03.1-.11.1-.28 0-.14.1-.07.2-.1.02 0 .04-.01.05-.03a.9.9 0 0 1 .36-.1l.23-.17.03.01.23.02s.17-.11.17-.22c0-.1-.07-.29-.07-.29l.38-.04.2-.09h.39l.2.16.01.01.4-.21s-.08-.13-.19-.23c-.07-.08-.17.01-.22.07a.25.25 0 0 0-.05.05s-.38-.06-.36-.16c.02-.11.31-.17.31-.17l.1-.08c.07-.06.2-.14.37-.17.27-.07.08.02.2.19.13.16.11.23.11.23s.23-.09.3-.19c.06-.11.35.04.35.04l-.14.17.08.16-.2.15-.26-.02c-.1 0-.04.13-.04.13l.17.15.23-.07.02.26s.04.14.21.08c.17-.06.3-.04.3-.04l.06.13.34-.03c.1 0 .19.17.19.17s-.1.27-.21.25c-.1-.02-.13.17-.13.17s.1.1.22.1zm-5.4 7.9l.33-.09s.21-.14.04-.17a.63.63 0 0 0-.23 0l-.14-.03.22-.22.24-.07.16.22.03-.02.35-.17.05-.01c.1-.01.26-.02.3.07.03.13.07.17-.1.3l-.2.12c-.03.03-.06.07-.07.17-.02.21-.15.42-.15.42l-.18-.01-.23-.01-.49-.23.21-.1zm0-.28c-.01 0-.01 0 0 0zm.88-4.66l-.06-.12.24-.13.07-.04s.02.15.1.34c.09.19.17.21.17.21s0-.34.09-.13c.08.21.06.23.24.24h.01c.19 0 .42-.05.42.1 0 .15-.27.31-.27.31l-.16.07-.13.05L25 16l.03-.01-.26.05a.73.73 0 0 1-.29.02.5.5 0 0 1-.38-.27l-.02-.03c-.06-.18 0-.48 0-.48l.3-.02zm.06 6.02l.11.04.24.09-.12-.19-.12-.1-.07-.05-.04-.19h.3l.05-.36s.32.27.36.13c.05-.15.05-.43.05-.43s-.13-.15-.05-.27a.57.57 0 0 0 .07-.14l.06-.18-.06-.1-.09-.15v-.17c.07-.1.02-.18.1-.26a.34.34 0 0 1 .1-.06c.2-.08.33-.25.33-.25l.25.15s.27.15-.04.17c-.32.02-.44.06-.25.12l.44.17s.1.21 0 .25c-.1.04-.42.04-.42.04v.19s.14-.04.16.11c.03.15.07.25.09.4l.02.25-.02.3s-.15.15.02.23c.17.09.45.24.24.4-.22.17-.15.19-.32.19s-.17 0-.2.11c-.01.1-.22.21-.22.21l-.18-.21h-.01s-.28 0-.4.02c-.13.02-.05-.15-.15-.15-.06 0-.08.1-.12.17-.02.05-.06.07-.1 0a23.9 23.9 0 0 0-.22-.28zm-3.13-9.57c.03 0 .06-.02.09-.04.14-.11.2-.36.2-.36s.15-.15.17 0c.02.15.06.26.06.26l.34.04.06-.24h.43l.3-.21s.15-.15.3-.16c.15 0 .34-.03.34-.03l.15-.27.04-.17s.13-.15 0-.16c-.12-.03-.48-.03-.54-.03l-.13.13.13.03.24.05-.12.24h-.12l-.32.02-.4.15s.1-.32-.04-.24c-.1.06-.1.04-.18.08l-.18.09c-.27.17-.36.21-.46.24l-.26.02h-.05s-.05-.14.05-.22v-.01c.11-.09.5-.22.5-.22s.25-.15.12-.15h-.3c.64-.22 1.3-.4 1.95-.53-.02.02-.04.02-.05.05-.08.17.17.15.3.06a.47.47 0 0 1 .24-.07c.08-.01.16.02.18.09.01.13.08.15.22.18l.05.01c.17.05.4.21.27.3-.06.05-.2.03-.32.03-.13 0-.22.01-.22.08 0 .15.08.3-.09.34a.16.16 0 0 1-.1 0c-.1-.03-.15-.11-.24.04-.1.19-.36.36-.36.36l-.3.11-.14.05-.35-.02-.24.28-.22.21-.07.06-.6.09.51-.3-.08-.17s-.09-.04-.32.11l-.35.23c-.18.12-.35.24-.4.25-.12.02-.43-.04-.43-.04l.36-.38s.17-.21.38-.26zm4.2-1.91c.05.25.24.37-.06.33l-.22-.03c-.1-.02-.14-.05-.14-.12 0-.1.1-.14-.02-.16l-.1-.03.54-.05v.06zm-1.18.09l.09-.01a.49.49 0 0 1-.04.1s-.01-.05-.05-.09zm2.72-.24c-.01.07-.03.1-.1.13-.13.04-.17.23-.2.04a.3.3 0 0 1 .04-.17h.26zm-8.54 2.33l.48-.26-.03.21-.4.1-.5.3c-.26.15-.36.23-.36.23l.6-.25.26-.11.31.07s.23-.13.44-.22c.22-.08.4-.29.53-.29s.3.08.4.04c.1-.04.63-.34.63-.34l-.34.49c-.1.17-.3.36-.3.36h-.22s.04.06-.1.12c-.16.07-.11-.06-.32.11-.21.16-.42.16-.42.16l.5.15s.34-.29.36-.16c.02.12.32.17-.1.27-.42.11-.47.13-.78.36-.32.23-.76.45-.8.55-.04.1-.13.5-.13.5l-.31.2s.08.1-.04.25c-.13.14-.8.44-.93.59l-.31.36s.08.04.08.16c0 .13-.23.21-.23.21s0-.1-.17-.14c-.16-.04-.25-.17-.25-.17l.21-.23s.24-.28.34-.28c.1 0 .63-.29.63-.29l-.09-.13h-.37l.08-.74-.38-.1-.37.18s.37.03.4.13c.02.11-.1.34-.1.34l-.22-.15-.12.34s-.45.11-.45.27c0 .17-.14.57-.14.57s-.55.02-.5-.1c.04-.13.22-.4.22-.4l.2-.09-.34-.1-.34.21-.26-.02a17.77 17.77 0 0 1 4.05-3.26zM26 31.22C13.28 27.8 3.6 22.66 4.39 19.74c.33-1.26 2.56-1.91 6-1.96a19.2 19.2 0 0 0-1.97 5.51 36.13 36.13 0 0 0 2.1 1.25 62.92 62.92 0 0 0 9.02 3.82c.04-.09.37-.65.51-.72.16-.08.3-.19.52-.16.24.03.32-.08.58-.32l.17-.15.22-.19s-.18.24.21.4a2.65 2.65 0 0 0 .63.16s.05.39.24.29c.18-.11.34-.21.47-.21l.08-.01c.15-.02.38-.08.55-.1.14-.02.25-.08.36-.09a.4.4 0 0 1 .2.06c.06.04.13.05.2.06.15.01.3-.02.37.12a.6.6 0 0 0 .3.3c.06.03.12.04.17.02l.29-.1.5.1s.36-.08.52 0l.01.01c.16.07.4.08.44.2.02.13-.56.21-.4.48.16.26.34.52.21.55a.75.75 0 0 0-.25.16l-.11.1a4.95 4.95 0 0 0 .34.4c.1.13.63.23.63.23s.13-.08.31.08c.19.16.19.5.42.66.23.15.67.23.86.43l.37.09a.32.32 0 0 0 .13-.05s.12-.57.3-.72l.56-2c-.04-.09-.05-.18-.08-.27-.05-.2-.09-.2-.18-.45-.08-.25-.21-.29-.23-.56-.02-.27-.02-.37-.05-.59-.04-.22-.3-.54-.3-.54s.09-.2-.2-.25c-.3-.06-.5-.15-.54-.25-.04-.11-.1-.29-.1-.45 0-.13-.2-.35-.27-.42a226.19 226.19 0 0 0-.44.29s-.02.18.05.31c.07.12.26.23.27.32.02.09-.05.11.06.31.1.19.32.57.4.64.1.07.43.2.43.2s.28.21.34.3c.05.09.05.31.05.31l-.1-.04s-.08-.27-.17-.27c-.08 0-.3.08-.3.08l.12.36-.07.2-.16.14-.2.23h-.32s-.02.13-.02.27c0 .15-.18.27-.26.18a3.01 3.01 0 0 0-.31-.34c-.12-.09-.56-.26-.37-.36.2-.11.1-.27.25-.13.16.14.24.18.24.18s.09-.11.2-.07c.1.03.43.05.43.05l.3-.22-.14-.34s-.3-.32-.43-.5l-.67-.86c-.09-.11-.36-.24-.32-.38a.8.8 0 0 0-.07-.5c-.08-.13-.33-.17-.33-.17v-.01l-.27.19-.04.03c-.1.08-.26.17-.35.19-.11.02-.38-.13-.48-.23-.11-.11-.46-.13-.6-.13-.03 0-.05.02-.06.05-.05.1 0 .33 0 .33s-.2.29-.3.36c-.05.04-.24.03-.38.01l-.16-.03-.24.16c-.12.07-.25.15-.3.15-.08 0-.05.29-.05.29l-.02.29-.27.01-.09.31h-.34l-.2.14-.58-.11a3.33 3.33 0 0 1-.58-.14c-.1-.05-.02-.07-.16-.16-.15-.09 0-.14 0-.27 0-.09-.1-.13-.17-.15l-.05-.02s-.4-.45-.4-.57a.8.8 0 0 1 .13-.43c.1-.15.14-.13.29-.22l.03-.02c.1-.07.04-.07.17-.2.14-.14.05-.07.07-.21.01-.15.04-.09.14-.17.1-.07.04-.16.07-.34.04-.18 0-.32 0-.32s.14-.16.24-.16c.05 0 .15.05.22.08a.8.8 0 0 1 .06.04s.07.13.22.18c.14.05.21.11.43.25.16.11.17.08.23.07h.1c.15.04.22.17.32.2.09.04.36-.03.36-.03s.08-.09.13-.19c.02-.03.04-.05.04-.08.04-.11.13-.08.17-.18.03-.11.07-.34.07-.5 0-.17-.13-.27-.13-.27s.17-.15.17-.28c0-.11-.26-.09-.32-.15a.06.06 0 0 1 0-.03c0-.09-.19-.27-.22-.41-.04-.14.17-.11.17-.11l.05.03.31.19.1.02.03.02.18-.02-.04-.22s-.03-.09.06-.22c.08-.13.17.04.17.04l.13.32.13-.02c.06-.02.12-.04.16-.07.09-.07.12-.09.27-.07l.04.06c.1-.04.18-.14.18-.14s-.08-.22.05-.22h.3l.15-.18.27.05.08-.18.04-.11s.34-.32.54-.25c.2.08.32.15.32.15l.13-.15.19.05.1-.3-.03-.66.5-.32s0-.4.15-.2c.14.2.07.64.07.64l-.32.2-.12.19s.05 0 .07.13c.02.12-.1.09.02.24.13.15.33.2.33.2l.22-.22.27.29s.42.05.55 0c.12-.04.3-.24.42-.24s.22.15.22.15.05.09.22-.03l.06-.03c.16-.09.34-.11.34-.11s-.25-.38-.1-.5.05-.44.3-.47c.24-.02.37.25.37.25l.27-.17s-.35-.15-.35-.28c0-.12-.15-.29.1-.32.25-.02.32-.15.6-.15.19 0 .28.07.36.04l.08-.49c-.25.05-.47.11-.51.15a.86.86 0 0 1-.44.19c-.15.02-.4-.1-.4-.1l-.27-.73.34-.46.24-.36.21-.16-.17-.21s-.45-.21-.49-.05l-.07.35s.35.01.12.12c-.22.11-.38.32-.5.35l-.03.01c-.12.03-.25.04-.26.15-.02.12-.02.05-.02.23 0 .17.03.45.12.54l.16.13c.06.05.1.11.07.16l-.07.08-.28.24-.3.08s-.05.28-.05.49c0 .21.03.25-.23.26-.26.02-.43.16-.43.25 0 .08-.31.14-.31.05l-.04-.4.16-.18s-.17.14-.2.04c-.01-.11.04-.41.04-.56 0-.16-.21-.51-.21-.51s-.17.05-.33.14c-.16.09.1.2-.26.11-.35-.09-.47-.28-.49-.37-.02-.09-.02-.12.2-.21.2-.09.38-.23.38-.23s-.27-.02-.3-.14c-.04-.12-.02-.28-.02-.28l.26-.05-.17-.17.33-.07.33-.19c.25-.14.2-.2.32-.27.12-.06.24-.14.36-.19.12-.05.3-.08.3-.08s.14-.02.14-.16.07-.4.07-.4.1-.04.24-.04c.14 0 .26-.21.26-.21l.23-.19c0-.03.08-.36.38-.33.31.03.56-.14.56-.14s-.02-.19.24-.1.4.18.47.3c.07.1.25.26.26.27h.23l.24.06a53.81 53.81 0 0 0 .43-5.73c0-.45 0-1.01-.04-1.62-1.86-.65-3.82-1-5.8-1.05h.06c1.77-2.96 3.43-4.57 4.7-4.23 2.9.78 2.52 11.75-.9 24.49-.38 1.44-.78 2.84-1.2 4.19a146 146 0 0 1-4.25-1.02zM10.42 17.71l-.03.07.03-.07zm16.22 8.88v-.01l.23-.32s.21.09.14.21c-.07.12-.07.28-.1.41-.04.12.06.21-.1.26l-.16.04a.56.56 0 0 1-.22.01c-.09-.02-.16-.1-.16-.1s0-.2.09-.23a.83.83 0 0 0 .28-.27zm-.03-.67l.04-.09.06-.14.23-.14s.2-.21.14-.05l-.08.23c-.05.11-.26.17-.35.18l-.04.01z"/></svg>